<?xml version="1.0" encoding="UTF-8"?>
<svg id="Layer_2" data-name="Layer 2" xmlns="http://www.w3.org/2000/svg" viewBox="0 0 500 93.21">
  <defs>
    <style>
      .cls-1 {
        fill: #5f72ff;
      }
    </style>
  </defs>
  <g id="logo_gramavel_lilas02">
    <g>
      <path class="cls-1" d="M67.3,35.31h-11.69v-.02l-.75.02h0l-19.4.56c-.66.03-1.19.58-1.19,1.24v10.15c0,.69.56,1.24,1.24,1.24h15.73c-.94,2.41-2.14,4.5-3.6,6.26-3.5,4.18-8.2,6.22-14.37,6.22-5.76,0-10.01-1.8-13.01-5.51-3.02-3.73-4.55-9.36-4.55-16.73,0-8.37,2.07-14.67,6.15-18.72,4.08-4.05,10.5-6.11,19.07-6.11,3.36,0,6.96.31,10.69.93,3.75.62,8.3,1.73,13.52,3.3.38.11.78.04,1.1-.19s.5-.6.5-1V5.02c0-.56-.37-1.05-.91-1.2-4.98-1.4-9.49-2.39-13.39-2.97-3.9-.57-7.74-.86-11.42-.86-12.94,0-23.12,3.45-30.25,10.24C3.63,17.05,0,26.78,0,39.14c0,7.18,1.23,13.51,3.64,18.82,2.44,5.37,5.97,9.58,10.5,12.52,4.53,2.94,9.93,4.43,16.05,4.43,7.39,0,13.56-2.27,18.36-6.75,2.97-2.78,5.22-6.22,6.72-10.3l.64,15.87c.03.66.58,1.19,1.24,1.19h10.15c.69,0,1.24-.56,1.24-1.24v-37.11c0-.69-.56-1.24-1.24-1.24Z"/>
      <path class="cls-1" d="M118.24,19.85c0-.61-.44-1.13-1.04-1.23-1.66-.28-3.34-.41-4.98-.41-5.76,0-10.66,1.51-14.58,4.48-2.1,1.59-3.86,3.56-5.29,5.89l.71-9.01c.03-.35-.08-.69-.32-.95-.24-.26-.57-.41-.92-.41h-12.04c-.69,0-1.24.56-1.24,1.24v54.22c0,.69.56,1.24,1.24,1.24h12.04c.69,0,1.24-.56,1.24-1.24v-28.25c0-2.82.62-5.34,1.83-7.5,1.2-2.14,2.91-3.82,5.08-4.99,3.28-1.78,7.43-2.27,12.25-1.31,1.59.31,3.02.75,4.26,1.3.38.17.83.14,1.19-.09.35-.23.57-.62.57-1.04v-11.94Z"/>
      <path class="cls-1" d="M167.7,24.4c-4.46-4.11-10.84-6.2-18.95-6.2-7.27,0-15.25,1.57-23.7,4.65-.49.18-.82.64-.82,1.17v10.94c0,.42.21.81.57,1.04.35.23.8.27,1.19.09,7.76-3.49,14.75-5.26,20.78-5.26,4.33,0,7.65.9,9.87,2.66,1.88,1.5,2.95,3.53,3.23,6.19h-15.89c-7.35,0-13.11,1.59-17.13,4.74-4.11,3.22-6.2,7.66-6.2,13.22s1.8,9.59,5.35,12.68c3.5,3.04,8.31,4.58,14.3,4.58s10.7-1.5,14.72-4.47c2.24-1.66,4.12-3.73,5.62-6.19l-.69,9.31c-.03.35.09.69.32.95.23.26.57.4.92.4h12.04c.69,0,1.24-.56,1.24-1.24v-31.53c0-7.62-2.28-13.58-6.77-17.73ZM157.77,55.94c-1.5,1.93-3.54,3.49-6.06,4.66-2.54,1.18-5.28,1.78-8.13,1.78s-5.07-.56-6.5-1.68c-1.35-1.05-2.01-2.57-2.01-4.64s.68-3.43,2.06-4.32c1.55-.99,3.92-1.49,7.04-1.49h15.76c-.07,2.05-.78,3.92-2.17,5.7Z"/>
      <path class="cls-1" d="M327.3,24.4c-4.46-4.11-10.84-6.2-18.95-6.2-7.27,0-15.25,1.57-23.7,4.65-.49.18-.82.64-.82,1.17v10.94c0,.42.21.81.57,1.04.35.23.8.27,1.19.09,7.76-3.49,14.75-5.26,20.78-5.26,4.33,0,7.65.9,9.87,2.66,1.88,1.5,2.95,3.53,3.23,6.19h-15.89c-7.35,0-13.11,1.59-17.13,4.74-4.11,3.22-6.2,7.66-6.2,13.22s1.8,9.59,5.35,12.68c3.5,3.04,8.31,4.58,14.3,4.58s10.7-1.5,14.72-4.47c2.24-1.66,4.12-3.73,5.62-6.19l-.69,9.31c-.03.35.09.69.32.95.23.26.57.4.92.4h12.04c.69,0,1.24-.56,1.24-1.24v-31.53c0-7.62-2.28-13.58-6.77-17.73ZM317.37,55.94c-1.5,1.93-3.54,3.49-6.06,4.66-2.54,1.18-5.28,1.78-8.13,1.78s-5.07-.56-6.5-1.68c-1.35-1.05-2.01-2.57-2.01-4.64s.68-3.43,2.06-4.32c1.55-.99,3.92-1.49,7.04-1.49h15.76c-.07,2.05-.78,3.92-2.17,5.7Z"/>
      <path class="cls-1" d="M301.48,13.55h10.94c.35,0,.68-.15.92-.41l13.83-11.06c.33-.36.42-.89.22-1.34-.2-.45-.64-.74-1.14-.74h-13.43c-.39,0-.76.19-1,.5l-11.34,11.06c-.28.38-.33.88-.11,1.3.21.42.64.68,1.11.68Z"/>
      <path class="cls-1" d="M393.89,18.75c-.23-.34-.62-.54-1.03-.54h-12.34c-.52,0-.98.32-1.17.81l-14.58,40.59-15.43-40.61c-.19-.48-.65-.79-1.16-.79h-12.53c-.41,0-.8.21-1.03.55-.23.34-.27.78-.11,1.17l21.29,54.22c.19.46.65.77,1.15.77h15.52c.51,0,.97-.31,1.16-.79l20.39-54.22c.15-.38.1-.82-.13-1.16Z"/>
      <path class="cls-1" d="M489.32,52.91c-.28-.24-.67-.34-1.03-.27-.37.07-.68.29-.86.62-1.78,3.2-3.57,5.6-5.31,7.14-1.61,1.42-3.21,2.14-4.74,2.14-1.39,0-2.54-1.26-3.4-3.74h0c1.52-1.13,2.99-2.31,4.42-3.54,6.78-5.82,12.13-12.25,15.89-19.09,3.8-6.89,5.72-13.73,5.72-20.32,0-5-1.65-8.94-4.91-11.73-3.2-2.74-7.32-4.13-12.25-4.13-5.74,0-10.57,2.35-14.35,6.99-3.65,4.48-6.37,10.44-8.1,17.72-1.7,7.2-2.57,15.15-2.57,23.65,0,1.13.05,2.25.13,3.34,0,0,0,0,0,0-2.83,4.12-18.95,8.52-20.91,9.04-4.13.95-8.11,1.44-11.9,1.44-6.14,0-10.73-1.38-13.62-4.09-1.14-1.07-2.06-2.34-2.75-3.82l40.92-5.63c.62-.08,1.07-.61,1.07-1.23,0-5.87-1.12-11.07-3.32-15.43-2.23-4.42-5.55-7.86-9.86-10.23-4.28-2.35-9.47-3.54-15.42-3.54s-11.04,1.19-15.54,3.52c-4.54,2.36-8.09,5.73-10.56,10.04-2.45,4.28-3.69,9.25-3.69,14.74s1.3,10.48,3.86,14.76c2.56,4.3,6.3,7.69,11.11,10.08,3.51,1.75,7.56,2.85,12.06,3.31h0s.05,0,.07,0c1.57.16,3.2.24,4.89.24.37,0,.74,0,1.11-.01,21.79.05,36.72-8.76,36.72-8.76,1.22,2.02,2.67,3.74,4.34,5.14,2.87,2.41,6.25,3.63,10.06,3.63,4.09,0,7.87-1.2,11.22-3.57,3.28-2.32,6.36-5.91,9.16-10.69.3-.51.19-1.16-.27-1.55l-7.36-6.19ZM411.01,34.8c2.53-2.56,6.41-3.86,11.55-3.86,4.2,0,7.45.9,9.67,2.66,1.89,1.51,3.11,3.38,3.68,5.69l-28.56,3.98c.42-3.59,1.64-6.44,3.66-8.47ZM473.92,29.91c.97-5.42,2.3-9.83,3.97-13.11,1.02-2.02,2.64-4.43,4.56-4.43.91,0,1.56.26,2.05.81.52.59.79,1.59.79,2.97,0,4.75-1.38,9.83-4.09,15.1-2.12,4.12-5.03,8.08-8.66,11.84.18-4.57.64-8.98,1.39-13.18Z"/>
      <path class="cls-1" d="M269.35,22.21c-4.62-3.31-10.63-4.58-18.03-3.81-6.24.64-12.14,3.08-17.69,7.3-1.28.97-2.49,2-3.64,3.07-2.27-4.42-5.19-8.04-8.78-10.84-4.46-3.46-9.8-4.86-16.04-4.22-5.53.57-10.28,2.53-14.26,5.86-3.98,3.34-6.9,7.81-8.75,13.4-1.85,5.6-2.41,11.96-1.68,19.09.52,4.99,1.35,9.37,2.5,13.12.79,2.57,1.81,5.07,3.07,7.51.99,1.91,3.31,2.73,5.29,1.88l6.99-2.98c2.18-.93,3.17-3.52,2.08-5.63-.95-1.83-1.74-3.6-2.37-5.3-1.06-2.86-1.78-6.17-2.17-9.91-.63-6.06.11-10.71,2.21-13.94,2.1-3.23,5.11-5.05,9.03-5.46,3.56-.37,6.87.67,9.91,3.1,1.72,1.38,3.23,2.99,4.58,4.79-.34.59-.68,1.18-1,1.79-3.12,6-4.39,11.8-3.81,17.42.34,3.3,1.39,5.85,3.15,7.65,2.37,2.42,5.65,2.96,9.83,1.6.36-.12.73-.29,1.05-.5,4.38-2.89,6.18-8.05,5.41-15.49-.36-3.46-.92-6.78-1.68-9.97,1.31-.73,2.67-1.42,4.15-2.05,4.53-1.91,8.8-3.07,12.81-3.49,3.48-.36,6.08.03,7.82,1.15,1.74,1.13,2.75,3.07,3.03,5.83.51,4.9-1.52,10.11-6.09,15.63-4.56,5.52-11.76,10.45-21.58,14.79-8.9,3.94-19.65,6.7-32.27,8.29-2.21.28-3.79,2.29-3.57,4.51l.32,3.08c.25,2.41,2.52,4.11,4.9,3.63,13.84-2.82,26.21-6.69,37.11-11.61,12.05-5.43,21.31-11.88,27.79-19.35,6.48-7.47,9.27-15.53,8.38-24.17-.75-7.22-3.43-12.48-8.05-15.79ZM226.03,61.07c-1.95.19-3.07-1.07-3.37-3.77-.46-4.17,1.01-8.19,4.35-12.07,1.24,3.36,2.08,6.6,2.42,9.7.42,3.84-.71,5.89-3.41,6.15Z"/>
    </g>
  </g>
</svg>